<svg width="826" height="418" viewBox="0 0 826 418" fill="none" xmlns="http://www.w3.org/2000/svg">
<path d="M43.47 334.288C41.25 332.968 38.89 332.258 36.39 332.168V331.498C38.68 330.958 40.73 330.078 42.53 328.838C44.33 327.608 45.75 326.008 46.79 324.058C47.83 322.108 48.35 319.818 48.35 317.208C48.35 313.878 47.54 310.928 45.92 308.368C44.3 305.808 41.86 303.788 38.6 302.318C35.34 300.848 31.27 300.108 26.39 300.108H0V366.638H28.09C33.12 366.638 37.33 365.838 40.71 364.248C44.09 362.658 46.64 360.478 48.37 357.708C50.1 354.938 50.96 351.798 50.96 348.288C50.96 345.018 50.27 342.188 48.88 339.828C47.5 337.458 45.69 335.618 43.48 334.288H43.47ZM13.62 311.228H24.65C27.83 311.228 30.28 311.988 31.99 313.508C33.7 315.028 34.56 316.988 34.56 319.398C34.56 321.188 34.12 322.728 33.24 324.018C32.36 325.308 31.15 326.308 29.6 327.008C28.05 327.708 26.31 328.058 24.38 328.058H13.62V311.228ZM34.16 353.108C32.31 354.658 29.4 355.428 25.41 355.428H13.62V337.388H25.77C28.06 337.388 30.04 337.798 31.71 338.618C33.38 339.438 34.66 340.568 35.57 342.008C36.48 343.448 36.93 345.108 36.93 346.988C36.93 349.518 36.01 351.558 34.16 353.108Z" fill="#262626"/>
<path d="M99.2017 340.358C102.792 338.678 105.532 336.248 107.422 333.078C109.312 329.908 110.252 326.138 110.252 321.758C110.252 317.378 109.322 313.568 107.462 310.328C105.602 307.088 102.902 304.568 99.3517 302.778C95.8017 300.988 91.5117 300.098 86.4517 300.098H60.5117V366.628H74.1317V342.868H84.8117L97.5317 366.628H112.622L98.4517 340.668C98.7017 340.558 98.9517 340.458 99.2017 340.348V340.358ZM74.1217 311.358H83.9017C86.7017 311.358 89.0017 311.758 90.8017 312.568C92.6017 313.368 93.9517 314.538 94.8417 316.078C95.7317 317.608 96.1817 319.508 96.1817 321.768C96.1817 324.028 95.7317 325.828 94.8417 327.328C93.9517 328.828 92.6117 329.958 90.8217 330.718C89.0317 331.478 86.7417 331.858 83.9417 331.858H74.1217V311.358Z" fill="#262626"/>
<path d="M134.19 300.108H120.57V366.638H134.19V300.108Z" fill="#262626"/>
<path d="M187.08 304.098C182.27 301.438 176.53 300.098 169.87 300.098H146.25V366.628H169.65C176.41 366.628 182.2 365.298 187.04 362.628C191.88 359.958 195.59 356.148 198.18 351.178C200.77 346.208 202.06 340.258 202.06 333.318C202.06 326.378 200.77 320.478 198.18 315.528C195.59 310.578 191.89 306.758 187.08 304.098ZM186.3 345.558C184.84 348.748 182.66 351.098 179.76 352.618C176.86 354.138 173.26 354.898 168.98 354.898H159.87V311.848H169.07C173.33 311.848 176.89 312.608 179.76 314.128C182.63 315.648 184.81 317.988 186.28 321.158C187.75 324.328 188.49 328.388 188.49 333.328C188.49 338.268 187.76 342.378 186.3 345.558Z" fill="#262626"/>
<path d="M242.781 341.548H257.241C257.181 344.268 256.571 346.658 255.401 348.718C254.161 350.878 252.401 352.538 250.111 353.698C247.821 354.858 245.061 355.438 241.851 355.438C238.281 355.438 235.181 354.578 232.561 352.848C229.941 351.118 227.911 348.618 226.471 345.328C225.031 342.038 224.301 338.038 224.301 333.338C224.301 328.638 225.031 324.648 226.491 321.368C227.951 318.098 229.991 315.598 232.611 313.888C235.231 312.178 238.251 311.318 241.671 311.318C243.521 311.318 245.211 311.548 246.761 312.008C248.311 312.468 249.681 313.148 250.891 314.038C252.101 314.928 253.121 316.008 253.971 317.278C254.821 318.548 255.481 319.978 255.961 321.588H269.801C269.321 318.288 268.291 315.268 266.701 312.548C265.111 309.828 263.051 307.468 260.541 305.468C258.021 303.478 255.151 301.928 251.921 300.848C248.691 299.758 245.201 299.218 241.451 299.218C235.621 299.218 230.361 300.578 225.691 303.278C221.021 305.988 217.311 309.898 214.571 314.998C211.831 320.108 210.461 326.258 210.461 333.458C210.461 340.658 211.781 346.508 214.411 351.608C217.041 356.718 220.711 360.648 225.391 363.398C230.081 366.148 235.531 367.528 241.761 367.528C247.331 367.528 252.271 366.408 256.591 364.158C260.911 361.908 264.301 358.698 266.771 354.508C269.241 350.328 270.481 345.318 270.481 339.478V331.168H242.791V341.528L242.781 341.548Z" fill="#262626"/>
<path d="M294.542 338.598H323.122V327.478H294.542V311.398H325.442V300.108H280.922V366.638H325.532V355.338H294.542V338.598Z" fill="#262626"/>
<path d="M371.741 300.108H358.121V366.638H371.741V300.108Z" fill="#262626"/>
<path d="M427.519 332.028C427.519 333.818 427.579 335.988 427.699 338.548C427.819 341.108 427.959 343.788 428.119 346.588C428.189 347.768 428.259 348.918 428.339 350.038C427.779 348.668 427.209 347.368 426.649 346.148C425.499 343.678 424.379 341.428 423.279 339.408C422.179 337.388 421.089 335.508 420.019 333.778L398.989 300.108H383.809V366.638H397.739V336.048C397.739 334.528 397.689 332.568 397.579 330.178C397.479 327.778 397.329 325.108 397.159 322.158C397.059 320.458 396.949 318.698 396.849 316.908C397.819 318.878 398.709 320.678 399.499 322.268C400.789 324.868 402.039 327.258 403.229 329.408C404.419 331.568 405.719 333.788 407.109 336.088L426.219 366.628H441.449V300.098H427.519V332.028Z" fill="#262626"/>
<path d="M467.132 300.108H453.512V366.638H467.132V300.108Z" fill="#262626"/>
<path d="M476.5 311.398H496.86V366.638H510.53V311.398H530.85V300.108H476.5V311.398Z" fill="#262626"/>
<path d="M553.839 300.108H540.219V366.638H553.839V300.108Z" fill="#262626"/>
<path d="M584.789 300.108L562.059 366.638H577.109L582.049 351.188H605.689L610.829 366.638H625.969L602.659 300.108H584.799H584.789ZM585.459 340.518L587.369 334.538C588.589 330.488 589.819 325.988 591.049 321.028C591.849 317.818 592.699 314.398 593.579 310.808C594.489 314.368 595.379 317.758 596.229 320.938C597.549 325.868 598.859 330.398 600.139 334.538L602.129 340.518H585.459Z" fill="#262626"/>
<path d="M623.371 311.398H643.731V366.638H657.401V311.398H677.711V300.108H623.371V311.398Z" fill="#262626"/>
<path d="M700.71 300.108H687.09V366.638H700.71V300.108Z" fill="#262626"/>
<path d="M747.512 332.208C746.292 336.258 745.052 340.698 743.802 345.538C742.982 348.698 742.122 352.098 741.232 355.678C740.312 352.128 739.432 348.748 738.572 345.578C737.262 340.708 735.972 336.258 734.692 332.208L724.062 300.098H708.922L732.232 366.628H750.052L772.822 300.098H757.772L747.502 332.208H747.512Z" fill="#262626"/>
<path d="M794.659 355.338V338.598H823.239V327.478H794.659V311.398H825.559V300.108H781.039V366.638H825.649V355.338H794.659Z" fill="#262626"/>
<path d="M335.301 394.568C334.381 393.868 333.301 393.348 332.071 393.008C330.841 392.668 329.521 392.498 328.121 392.498H312.531V417.658H317.701V409.488H328.121C329.521 409.488 330.841 409.338 332.071 409.038C333.301 408.738 334.381 408.258 335.301 407.598C336.221 406.938 336.941 406.078 337.461 405.008C337.981 403.938 338.241 402.658 338.241 401.158C338.241 399.658 337.981 398.318 337.461 397.228C336.941 396.138 336.221 395.248 335.301 394.548V394.568ZM331.861 404.268C331.061 405.008 329.971 405.378 328.591 405.378H317.701V396.938H328.591C329.961 396.938 331.051 397.298 331.861 398.028C332.661 398.758 333.071 399.808 333.071 401.178C333.071 402.548 332.671 403.528 331.861 404.268Z" fill="#262626"/>
<path d="M357.721 413.078L349.091 392.508H343.371L354.501 417.668H360.951L371.961 392.508H366.321L357.721 413.078Z" fill="#262626"/>
<path d="M377.402 396.828H388.092V417.668H393.272V396.828H403.922V392.508H377.402V396.828Z" fill="#262626"/>
<path d="M430.02 392.508H424.84V417.668H446.74V413.348H430.02V392.508Z" fill="#262626"/>
<path d="M449.812 396.828H460.503V417.668H465.673V396.828H476.332V392.508H449.812V396.828Z" fill="#262626"/>
<path d="M512.402 400.248C511.922 398.748 511.122 397.418 509.992 396.258C508.862 395.108 507.352 394.188 505.462 393.518C503.572 392.848 501.212 392.508 498.382 392.508H483.992V417.668H498.382C501.082 417.668 503.362 417.328 505.242 416.638C507.122 415.948 508.642 415.018 509.792 413.838C510.942 412.658 511.792 411.308 512.322 409.778C512.852 408.248 513.122 406.658 513.122 404.998C513.122 403.338 512.882 401.758 512.402 400.258V400.248ZM507.402 408.068C507.092 409.058 506.572 409.938 505.842 410.708C505.112 411.488 504.142 412.098 502.902 412.558C501.672 413.008 500.122 413.238 498.252 413.238H489.152V396.948H498.252C500.122 396.948 501.662 397.168 502.902 397.608C504.132 398.048 505.112 398.648 505.842 399.398C506.572 400.148 507.082 401.008 507.402 401.968C507.712 402.928 507.872 403.938 507.872 404.998C507.872 406.058 507.722 407.088 507.402 408.068Z" fill="#262626"/>
<path fill-rule="evenodd" clip-rule="evenodd" d="M406.18 145.628C405.96 154.428 405.15 170.818 406.05 178.778C406.3 180.968 406.23 182.848 406.29 185.088C406.43 191.298 410.06 189.318 388.73 192.578C358.48 197.188 332.32 202.838 303.1 211.278C299.77 212.238 298.21 212.858 295.16 213.868L270.85 221.158C269.81 204.338 268.42 200.828 268.93 180.708C269.26 167.488 273.28 143.538 277.47 130.588C280.51 121.188 285.47 108.608 290.5 100.398C303.12 79.8177 320.04 59.0077 344.8 51.0977C361 45.9277 361.54 45.8677 378.27 46.2877C396.1 46.7377 421.1 59.5977 421.39 48.3177C421.43 46.6977 420.23 45.3577 419.08 43.9977C413.06 36.8977 389.45 30.5977 380.64 30.3777C345.87 29.5077 341.22 31.1377 311.93 43.9877C307.42 45.9677 305.45 47.7577 301.65 49.9977C297.93 52.1977 295.06 54.5377 291.51 57.1177C257.52 81.8477 239.77 130.798 238.7 173.378C238.42 184.378 239.03 194.148 240.06 204.248L244.07 232.708L224.25 240.668L224.18 243.488C228.86 243.498 250.18 237.948 256.53 236.588C294.5 228.498 319.87 224.478 357.97 218.408C368.81 216.678 381.14 215.698 393.1 214.318C404.95 212.948 418.19 211.478 430.04 211.088C435.44 210.908 444.15 210.438 448.98 209.948C461.69 208.638 508.77 209.308 523.28 209.678C523.48 205.538 528.72 193.668 530.88 188.338C533.38 182.158 534.16 182.078 513.15 182.148C508.18 182.168 507.71 182.978 502.4 182.878C495.84 182.758 486.61 182.808 480.06 183.488L436.54 186.838C434.32 175.468 439.02 136.108 440.85 125.708C446.09 95.8477 455.73 69.4577 474.79 47.2577C476.5 45.2577 477.35 44.7777 479.09 42.9177C481.81 40.0177 480.33 41.1877 483.56 38.7477C491.88 32.4677 495.85 27.3777 510.46 22.5177C540.91 12.3977 570.52 19.2277 593.92 37.1077C602.42 43.6077 608.01 48.0577 615.08 56.3777L615.95 57.4177C616.08 57.5777 616.25 57.7877 616.38 57.9377L619.47 61.5377C620.99 63.3577 621.26 63.9377 622.64 65.9877C629.99 76.8477 635.39 84.3977 640.7 97.2477L646.53 113.048C657.3 143.268 676.06 135.728 647.24 79.3677C643.88 72.7977 639.87 66.6277 635.74 60.4777C633.64 57.3477 631.46 54.5177 629.3 51.6677C619.5 38.7177 602.62 23.5677 588.01 15.8777C581.33 12.3577 574.09 8.58775 566.55 6.05775C518.07 -10.1823 467.99 7.18775 438.87 46.7077C432.1 55.8877 425.17 66.8177 421 77.8077C412.54 100.088 406.86 118.548 406.18 145.678V145.658V145.628Z" fill="#262626"/>
<path fill-rule="evenodd" clip-rule="evenodd" d="M445.07 159.758L482.01 156.518C526.96 151.598 588.12 157.148 626.11 172.888C636.15 177.048 650.93 184.268 659.86 190.778L674.57 202.158C698.33 220.668 672.83 217.198 736.58 202.038C742.63 200.598 747.5 198.668 753.16 197.558C752.23 193.878 737.01 181.688 732.63 178.638L717.79 168.298C689.42 149.808 654.19 138.808 620.95 132.628C573.63 123.828 514 123.618 467.11 129.948C446.83 132.688 447.7 127.428 446.47 143.828C446.01 149.988 445.23 153.438 445.07 159.748V159.758Z" fill="#262626"/>
<path fill-rule="evenodd" clip-rule="evenodd" d="M277.969 172.468L277.359 196.878C282.259 196.608 287.669 194.638 292.029 193.368L390.579 169.388C398.559 167.758 396.679 172.708 397.409 143.528C397.509 139.698 393.639 141.228 384.079 143.588C347.469 152.608 330.679 156.458 293.409 167.798C289.169 169.088 281.959 172.258 277.969 172.468Z" fill="#262626"/>
<path fill-rule="evenodd" clip-rule="evenodd" d="M72.5 266.888C78.2 265.768 104.34 255.578 112.1 252.848C118.75 250.518 124.55 248.058 131.62 245.548L211.5 218.168C215.39 216.778 217.52 216.108 221.53 214.788C224.62 213.768 229.03 212.258 231.85 211.698C232.04 204.228 230.23 198.118 230.43 190.058C225.52 191.018 224.1 192.168 219.83 193.818C193.68 203.878 173.22 211.988 147.17 223.658C129.76 231.468 114.89 237.918 97.83 247.138C94.15 249.128 91.57 250.548 87.88 252.528C84.39 254.398 82.03 255.858 78.77 257.798C75.26 259.888 73.05 262.028 72.5 266.888Z" fill="#262626"/>
</svg>
